PathFileType  4	(X/Y/Z) /root/TVB/SAM4Dcap/opencap/output/Data/subject2_Session0/MarkerData/mmpose_0.8/2-cameras/PreAugmentation
DataRate	CameraRate	NumFrames	NumMarkers	Units	OrigDataRate	OrigDataStartFrame	OrigNumFrames
60.0	60.0	17	20	m	60.0	1	152
Frame#	Time	Neck			RShoulder			RElbow			RWrist			LShoulder			LElbow			LWrist			midHip			RHip			RKnee			RAnkle			LHip			LKnee			LAnkle			LBigToe			LSmallToe			LHeel			RBigToe			RSmallToe			RHeel			
		X1	Y1	Z1	X2	Y2	Z2	X3	Y3	Z3	X4	Y4	Z4	X5	Y5	Z5	X6	Y6	Z6	X7	Y7	Z7	X8	Y8	Z8	X9	Y9	Z9	X10	Y10	Z10	X11	Y11	Z11	X12	Y12	Z12	X13	Y13	Z13	X14	Y14	Z14	X15	Y15	Z15	X16	Y16	Z16	X17	Y17	Z17	X18	Y18	Z18	X19	Y19	Z19	X20	Y20	Z20	

1	0.0000000	0.9868200	1.0807500	-0.6088800	0.9983000	1.0770800	-0.4384500	0.9476800	0.7766200	-0.3496900	0.9934600	0.4815500	-0.2711200	0.9844300	1.0839500	-0.7788800	0.9446200	0.7794600	-0.8420500	1.0023900	0.4921100	-0.9118400	1.0136900	0.5478900	-0.5993500	1.0210700	0.5489700	-0.4749500	0.9699900	0.0787900	-0.4490200	0.9060500	-0.4220200	-0.3907000	1.0116000	0.5482200	-0.7239900	0.9482300	0.0656100	-0.7674500	0.8996500	-0.4137300	-0.8173700	1.0805400	-0.4777400	-0.8552200	1.0757100	-0.4752200	-0.8531700	0.8744900	-0.4540100	-0.7999600	1.0830600	-0.4744500	-0.3660600	1.0764600	-0.4732500	-0.3664400	0.8707900	-0.4684400	-0.3989100
2	0.0166667	0.9866200	1.0801600	-0.6091300	0.9970400	1.0767600	-0.4378400	0.9469100	0.7766600	-0.3501100	0.9917200	0.4801700	-0.2706100	0.9855100	1.0830600	-0.7799200	0.9445200	0.7786500	-0.8422600	1.0001600	0.4941400	-0.9112800	1.0126700	0.5423900	-0.6004200	1.0197000	0.5437700	-0.4756400	0.9646700	0.0764100	-0.4475800	0.9040700	-0.4216400	-0.3920900	1.0110500	0.5422600	-0.7253000	0.9538800	0.0664500	-0.7682500	0.9010800	-0.4133500	-0.8173700	1.0791900	-0.4765500	-0.8578700	1.0747000	-0.4738900	-0.8556000	0.8738300	-0.4551200	-0.7997200	1.0797600	-0.4729800	-0.3648200	1.0731200	-0.4717900	-0.3651100	0.8693300	-0.4677400	-0.4006600
3	0.0333333	0.9857500	1.0807600	-0.6087800	0.9979000	1.0773200	-0.4381200	0.9492300	0.7763800	-0.3514400	0.9915400	0.4807000	-0.2699400	0.9829300	1.0837000	-0.7791700	0.9425600	0.7785100	-0.8415600	0.9981400	0.4909000	-0.9107300	1.0131500	0.5476500	-0.6000500	1.0228500	0.5496400	-0.4759800	0.9695800	0.0799400	-0.4489200	0.9054800	-0.4233400	-0.3887800	1.0085300	0.5476200	-0.7242500	0.9496600	0.0665800	-0.7666500	0.9009100	-0.4132500	-0.8177000	1.0799500	-0.4761600	-0.8574100	1.0655900	-0.4752600	-0.8604700	0.8746900	-0.4546300	-0.7997500	1.0831600	-0.4719800	-0.3670100	1.0765700	-0.4708900	-0.3671500	0.8677600	-0.4693000	-0.3955100
4	0.0500000	0.9862900	1.0804900	-0.6091700	0.9979300	1.0773100	-0.4389300	0.9471100	0.7760500	-0.3508700	0.9909100	0.4812300	-0.2714300	0.9842100	1.0830500	-0.7792100	0.9432300	0.7780700	-0.8419100	0.9996800	0.4938200	-0.9097700	1.0118400	0.5487200	-0.5991700	1.0205400	0.5500700	-0.4751900	0.9747600	0.0821500	-0.4505300	0.9051400	-0.4216800	-0.3899600	1.0081500	0.5489200	-0.7232200	0.9443500	0.0650400	-0.7657900	0.8992500	-0.4149200	-0.8164100	1.0787300	-0.4747200	-0.8572300	1.0732400	-0.4726500	-0.8555800	0.8737900	-0.4569800	-0.8014600	1.0797500	-0.4739500	-0.3679700	1.0728300	-0.4728900	-0.3679100	0.8676500	-0.4690600	-0.3955100
5	0.0666667	0.9860600	1.0803400	-0.6094400	0.9978900	1.0769500	-0.4388700	0.9466600	0.7760600	-0.3516900	0.9903700	0.4800700	-0.2711300	0.9839200	1.0832500	-0.7798700	0.9427600	0.7768500	-0.8427800	0.9981900	0.4929000	-0.9114300	1.0119200	0.5460000	-0.6001400	1.0206900	0.5475300	-0.4763100	0.9746400	0.0799400	-0.4507800	0.9052000	-0.4235400	-0.3894100	1.0080800	0.5458900	-0.7240900	0.9427500	0.0633100	-0.7672200	0.9005300	-0.4150600	-0.8151800	1.0793200	-0.4777800	-0.8577600	1.0743600	-0.4753300	-0.8556300	0.8782700	-0.4562200	-0.7984400	1.0821500	-0.4746300	-0.3676500	1.0751800	-0.4736900	-0.3675800	0.8679200	-0.4712100	-0.3953200
6	0.0833333	0.9857300	1.0803700	-0.6099000	0.9980200	1.0771600	-0.4391800	0.9469000	0.7762300	-0.3520000	0.9928200	0.4802500	-0.2698000	0.9828800	1.0829700	-0.7804200	0.9407800	0.7764500	-0.8423000	0.9991900	0.4907800	-0.9112000	1.0126400	0.5483100	-0.5996300	1.0201700	0.5507800	-0.4753900	0.9746200	0.0810600	-0.4510200	0.9038300	-0.4243300	-0.3894400	1.0097200	0.5482500	-0.7240000	0.9466400	0.0655000	-0.7669500	0.9002100	-0.4180800	-0.8177000	1.0810400	-0.4763700	-0.8557200	1.0755500	-0.4742900	-0.8543600	0.8730700	-0.4610200	-0.8047100	1.0843800	-0.4727900	-0.3685300	1.0777600	-0.4718900	-0.3685000	0.8673500	-0.4709000	-0.3965700
7	0.1000000	0.9862300	1.0802200	-0.6095500	0.9975500	1.0770300	-0.4382800	0.9472900	0.7743300	-0.3511100	0.9922100	0.4808900	-0.2709000	0.9844200	1.0827400	-0.7804700	0.9390400	0.7760300	-0.8421500	1.0005200	0.4905100	-0.9109600	1.0121600	0.5464000	-0.5993500	1.0207700	0.5477800	-0.4752600	0.9758800	0.0792200	-0.4500500	0.9045800	-0.4231500	-0.3903200	1.0081500	0.5470000	-0.7235700	0.9403200	0.0639400	-0.7653500	0.8985100	-0.4172100	-0.8161100	1.0767400	-0.4764700	-0.8580300	1.0706600	-0.4744100	-0.8567100	0.8732100	-0.4596700	-0.8014400	1.0855400	-0.4720400	-0.3698500	1.0786200	-0.4711200	-0.3697700	0.8665500	-0.4704500	-0.3956900
8	0.1166667	0.9856600	1.0795800	-0.6094400	0.9971900	1.0763500	-0.4386800	0.9462700	0.7752400	-0.3506200	0.9923000	0.4807800	-0.2705400	0.9837800	1.0822500	-0.7799300	0.9404800	0.7767500	-0.8424700	1.0006000	0.4908500	-0.9099300	1.0140600	0.5501600	-0.6000000	1.0218500	0.5515400	-0.4759900	0.9738300	0.0784500	-0.4497900	0.9050500	-0.4254000	-0.3889600	1.0110700	0.5504300	-0.7240800	0.9436100	0.0643800	-0.7658700	0.9001600	-0.4174100	-0.8164900	1.0792000	-0.4770900	-0.8553500	1.0727500	-0.4751000	-0.8543600	0.8737700	-0.4603200	-0.8035600	1.0852100	-0.4741400	-0.3694600	1.0787600	-0.4732300	-0.3694200	0.8673700	-0.4722800	-0.3939400
9	0.1333333	0.9854600	1.0803800	-0.6095300	0.9963900	1.0764100	-0.4388800	0.9481900	0.7746900	-0.3499600	0.9919600	0.4809300	-0.2709400	0.9840000	1.0837100	-0.7799900	0.9406900	0.7782300	-0.8419500	0.9996100	0.4922700	-0.9104900	1.0136900	0.5453900	-0.5995200	1.0197900	0.5460700	-0.4747000	0.9708300	0.0795100	-0.4497700	0.9048200	-0.4247200	-0.3898300	1.0125600	0.5463800	-0.7243700	0.9478000	0.0653800	-0.7663300	0.8999500	-0.4169200	-0.8174500	1.0781700	-0.4755100	-0.8583900	1.0722000	-0.4734500	-0.8572200	0.8722600	-0.4602900	-0.8036700	1.0848400	-0.4729300	-0.3676900	1.0781800	-0.4719300	-0.3677000	0.8674700	-0.4714100	-0.3953200
10	0.1500000	0.9855000	1.0802700	-0.6086600	0.9972500	1.0766900	-0.4380600	0.9470900	0.7726600	-0.3499000	0.9922100	0.4800800	-0.2707600	0.9832200	1.0832200	-0.7790600	0.9374100	0.7772600	-0.8411400	0.9993200	0.4900900	-0.9103600	1.0129800	0.5427400	-0.5987500	1.0213300	0.5441900	-0.4745100	0.9731600	0.0789900	-0.4492800	0.9052700	-0.4240800	-0.3910200	1.0094200	0.5431000	-0.7231200	0.9436100	0.0641500	-0.7656400	0.9000600	-0.4158300	-0.8165000	1.0785200	-0.4754300	-0.8567400	1.0730000	-0.4732300	-0.8552000	0.8755200	-0.4568700	-0.8018500	1.0846000	-0.4713200	-0.3685000	1.0779300	-0.4704400	-0.3685000	0.8683600	-0.4703200	-0.3974300
11	0.1666667	0.9852500	1.0808500	-0.6095000	0.9972900	1.0776400	-0.4388300	0.9474500	0.7766000	-0.3511100	0.9920400	0.4818000	-0.2700700	0.9826700	1.0835600	-0.7801800	0.9397400	0.7791000	-0.8421900	0.9980900	0.4917900	-0.9108800	1.0112900	0.5494600	-0.5997000	1.0195200	0.5517400	-0.4755000	0.9743000	0.0797400	-0.4506700	0.9058800	-0.4247000	-0.3902600	1.0078500	0.5489400	-0.7238900	0.9458600	0.0658700	-0.7679700	0.9006600	-0.4162800	-0.8164300	1.0750900	-0.4764600	-0.8593000	1.0690300	-0.4742800	-0.8578900	0.8754700	-0.4561500	-0.7999000	1.0813800	-0.4742300	-0.3677800	1.0742900	-0.4733300	-0.3678100	0.8678200	-0.4719500	-0.3971500
12	0.1833333	0.9848600	1.0805400	-0.6090000	0.9965100	1.0772400	-0.4381700	0.9488900	0.7774700	-0.3511500	0.9916000	0.4810900	-0.2696300	0.9824700	1.0834000	-0.7797900	0.9394100	0.7768300	-0.8414000	0.9989100	0.4926000	-0.9102500	1.0125800	0.5499800	-0.5991700	1.0204800	0.5520700	-0.4749600	0.9708100	0.0789700	-0.4485400	0.9025000	-0.4244500	-0.3896600	1.0091800	0.5500800	-0.7234700	0.9498000	0.0659400	-0.7691700	0.9010600	-0.4128300	-0.8142600	1.0468100	-0.4842500	-0.8767200	1.0410700	-0.4810900	-0.8744000	0.8795500	-0.4514200	-0.7947000	1.0829400	-0.4739400	-0.3682400	1.0759800	-0.4731300	-0.3682200	0.8656500	-0.4723100	-0.3966700
13	0.2000000	0.9849800	1.0813000	-0.6077700	0.9976300	1.0776100	-0.4380700	0.9486800	0.7762300	-0.3509900	0.9912700	0.4800100	-0.2707900	0.9812700	1.0845500	-0.7772100	0.9392900	0.7772400	-0.8407200	0.9984200	0.4952000	-0.9106800	1.0113600	0.5514400	-0.6007200	1.0212500	0.5526600	-0.4775900	0.9703800	0.0803900	-0.4491000	0.9048900	-0.4274400	-0.3895300	1.0061600	0.5516800	-0.7239700	0.9498900	0.0660200	-0.7674100	0.9004800	-0.4136700	-0.8169900	1.0710900	-0.4779600	-0.8624500	1.0641200	-0.4756600	-0.8618500	0.8758200	-0.4555500	-0.8006000	1.0846400	-0.4733300	-0.3681700	1.0780900	-0.4724800	-0.3683100	0.8690000	-0.4750300	-0.3977800
14	0.2166667	0.9855100	1.0809100	-0.6081600	0.9979800	1.0775000	-0.4369500	0.9492000	0.7769300	-0.3509900	0.9907900	0.4813000	-0.2708300	0.9823400	1.0838600	-0.7790900	0.9421600	0.7790400	-0.8414000	0.9975000	0.4970100	-0.9082800	1.0124900	0.5478900	-0.6000400	1.0215800	0.5496900	-0.4765900	0.9676300	0.0802300	-0.4487800	0.9052900	-0.4245200	-0.3902500	1.0082900	0.5479800	-0.7236400	0.9518400	0.0670300	-0.7680600	0.9011700	-0.4145100	-0.8180300	1.0732500	-0.4771300	-0.8622000	1.0664000	-0.4749100	-0.8617800	0.8756700	-0.4556300	-0.8015700	1.0840600	-0.4723600	-0.3693900	1.0773600	-0.4714000	-0.3694400	0.8685900	-0.4717100	-0.3973500
15	0.2333333	0.9857000	1.0811800	-0.6084100	0.9975800	1.0776900	-0.4372300	0.9468600	0.7745900	-0.3496100	0.9914400	0.4802600	-0.2704200	0.9832200	1.0841800	-0.7794000	0.9426000	0.7785800	-0.8409200	0.9979700	0.4960200	-0.9091700	1.0143200	0.5520400	-0.6000900	1.0220800	0.5538500	-0.4761400	0.9684100	0.0787600	-0.4482300	0.9046200	-0.4228000	-0.3885400	1.0114400	0.5520100	-0.7239800	0.9516300	0.0672700	-0.7683900	0.9021900	-0.4136500	-0.8169100	1.0743500	-0.4747900	-0.8585300	1.0673600	-0.4725700	-0.8581300	0.8771500	-0.4552500	-0.8014900	1.0842500	-0.4716500	-0.3672300	1.0777100	-0.4705200	-0.3672800	0.8680500	-0.4686600	-0.3942800
16	0.2500000	0.9841100	1.0820600	-0.6084100	0.9963100	1.0788600	-0.4380000	0.9460200	0.7757900	-0.3494000	0.9905600	0.4810100	-0.2704300	0.9812100	1.0848800	-0.7786200	0.9388300	0.7783800	-0.8405500	0.9983600	0.4938400	-0.9078000	1.0130200	0.5541400	-0.6014200	1.0225000	0.5566400	-0.4777100	0.9726800	0.0811300	-0.4508100	0.9029500	-0.4235900	-0.3901500	1.0082500	0.5537500	-0.7253600	0.9491800	0.0661800	-0.7671500	0.9020900	-0.4119400	-0.8150600	1.0650700	-0.4782700	-0.8660200	1.0587600	-0.4754300	-0.8648800	0.8795300	-0.4525700	-0.7972800	1.0835100	-0.4730100	-0.3684900	1.0767300	-0.4721400	-0.3685900	0.8661900	-0.4711000	-0.3962900
17	0.2666667	0.9850800	1.0809300	-0.6086600	0.9961000	1.0774600	-0.4383300	0.9462100	0.7755900	-0.3497600	0.9903800	0.4802200	-0.2711300	0.9831900	1.0839600	-0.7787500	0.9403200	0.7779200	-0.8410100	1.0008300	0.4935700	-0.9089000	1.0131600	0.5513900	-0.6009500	1.0202400	0.5524200	-0.4772100	0.9713700	0.0775200	-0.4497000	0.9047700	-0.4251700	-0.3891700	1.0110200	0.5518700	-0.7247900	0.9461500	0.0666200	-0.7664600	0.9001300	-0.4137400	-0.8165700	1.0654200	-0.4810200	-0.8666200	1.0593500	-0.4781600	-0.8652400	0.8760200	-0.4540400	-0.7991400	1.0840300	-0.4757400	-0.3677400	1.0775400	-0.4746300	-0.3678900	0.8688100	-0.4712100	-0.3946300
